<svg width="36" height="37" viewBox="0 0 36 37" fill="none" xmlns="http://www.w3.org/2000/svg">
<g filter="url(#filter0_d)">
<path d="M31.6796 22.6129L23.2796 14.2129L26.593 10.8995L26.5931 10.8995L28.553 8.93954L28.5531 8.93948L31.3997 6.09289C32.193 5.29954 32.193 3.99289 31.3997 3.19954L29.0197 0.819539C28.6464 0.446242 28.133 0.212891 27.573 0.212891C27.013 0.212891 26.4996 0.446242 26.1264 0.819539L23.2797 3.66619L21.3197 5.62619L18.0064 8.93954L9.69965 0.632891C9.18629 0.119539 8.253 0.119539 7.73965 0.632891L4.42635 3.94624C3.86635 4.45959 3.86635 5.34624 4.42635 5.90624L5.40635 6.88624L8.06635 9.54624L10.6796 12.1595C10.6796 12.1595 10.6796 12.1595 10.6797 12.1596L12.733 14.2129L5.24157 21.7043C5.1019 21.7659 5.0266 21.8919 4.98635 22.0529L4.00635 27.6529C4.00635 27.8395 4.053 27.9795 4.14635 28.0729C4.23964 28.1662 4.333 28.2129 4.473 28.2129C4.51964 28.2129 4.51964 28.2129 4.56635 28.2129L9.95006 27.2176C9.9873 27.2274 10.0275 27.2329 10.073 27.2329C10.213 27.2329 10.353 27.1862 10.3996 27.0929L18.0063 19.4862L18.6129 20.0929C18.6129 20.0929 18.6129 20.0929 18.613 20.0929L18.6131 20.093L19.9196 21.3996C19.9196 21.3996 19.9196 21.3996 19.9197 21.3996L19.9198 21.3997L26.4064 27.8863C26.6397 28.1196 26.9197 28.2129 27.1997 28.2129C27.4797 28.2129 27.7597 28.1196 27.9464 27.8863L31.6797 24.1529C32.0997 23.7329 32.0996 23.0329 31.6796 22.6129ZM10.073 26.0662L8.44014 24.4334L23.9559 8.9624L25.5664 10.5729L10.073 26.0662ZM26.7796 1.47289C27.1996 1.05289 27.9463 1.05289 28.3663 1.47289L30.7463 3.85289C31.1663 4.27289 31.1663 5.01954 30.7463 5.43954L28.2263 7.95954L24.2596 3.99289L26.7796 1.47289ZM23.6064 4.64624L25.5897 6.62959L27.573 8.61289L26.2664 9.91954L22.2997 5.95289L23.6064 4.64624ZM12.9896 13.1629L13.993 12.1595C14.1796 11.9729 14.1796 11.6929 13.993 11.5062C13.8063 11.3195 13.5264 11.3195 13.3396 11.5062L12.3363 12.5095L11.6596 11.8329L13.293 10.1995C13.4796 10.0129 13.4796 9.73289 13.293 9.54619C13.1063 9.35948 12.8264 9.35954 12.6396 9.54619L11.0063 11.1795L10.3529 10.5262L11.3329 9.54619C11.5196 9.35954 11.5196 9.07954 11.3329 8.89284C11.1463 8.70613 10.8663 8.70619 10.6796 8.89284L9.69959 9.87284L9.04624 9.21948L10.6796 7.58613C10.8662 7.39948 10.8662 7.11948 10.6796 6.93278C10.4929 6.74608 10.2129 6.74613 10.0262 6.93278L8.393 8.56624L7.693 7.86624L8.673 6.88624C8.85965 6.69959 8.85965 6.41959 8.673 6.23289C8.48635 6.04619 8.20635 6.04624 8.01965 6.23289L7.03965 7.21289L6.38629 6.55954L8.01965 4.92619C8.20629 4.73954 8.20629 4.45954 8.01965 4.27284C7.833 4.08613 7.553 4.08619 7.36629 4.27284L5.733 5.90624L5.07964 5.25289C4.893 5.06624 4.893 4.78624 5.07964 4.59954L8.393 1.28624C8.48635 1.19289 8.57965 1.14624 8.71965 1.14624C8.813 1.14624 8.953 1.19289 9.04629 1.28624L17.353 9.59289L13.3863 13.5595L12.9896 13.1629ZM21.6464 6.65289L23.2792 8.28575L7.76349 23.7567L6.153 22.1462L21.6464 6.65289ZM5.77965 23.0795L7.31068 24.6106C7.33397 24.6639 7.36793 24.7145 7.413 24.7595L9.09989 26.4464L5.0797 27.1395L5.77965 23.0795ZM31.0264 23.4995L27.293 27.2329C27.2464 27.2795 27.1064 27.2795 27.0597 27.2329L22.2296 22.4029L23.8863 20.7462C24.0729 20.5596 24.0729 20.2796 23.8863 20.0929C23.6996 19.9062 23.4196 19.9062 23.2329 20.0929L21.5763 21.7495L20.8996 21.0729L21.8797 20.0929C22.0663 19.9062 22.0663 19.6262 21.8797 19.4395C21.693 19.2529 21.413 19.2529 21.2263 19.4395L20.2463 20.4195L19.5929 19.7662L21.2263 18.1328C21.4129 17.9462 21.4129 17.6662 21.2263 17.4795C21.0396 17.2928 20.7596 17.2928 20.5729 17.4795L18.9396 19.1129L18.6596 18.8329L22.6263 14.8662L31.0263 23.2662C31.073 23.3129 31.073 23.4529 31.0264 23.4995Z" fill="#E3B873"/>
</g>
<defs>
<filter id="filter0_d" x="0.00634766" y="0.212891" width="35.9883" height="36.0001" filterUnits="userSpaceOnUse" color-interpolation-filters="sRGB">
<feFlood flood-opacity="0" result="BackgroundImageFix"/>
<feColorMatrix in="SourceAlpha" type="matrix" values="0 0 0 0 0 0 0 0 0 0 0 0 0 0 0 0 0 0 127 0"/>
<feOffset dy="4"/>
<feGaussianBlur stdDeviation="2"/>
<feColorMatrix type="matrix" values="0 0 0 0 0 0 0 0 0 0 0 0 0 0 0 0 0 0 0.25 0"/>
<feBlend mode="normal" in2="BackgroundImageFix" result="effect1_dropShadow"/>
<feBlend mode="normal" in="SourceGraphic" in2="effect1_dropShadow" result="shape"/>
</filter>
</defs>
</svg>
